/* XPM */
static char *_514_ef851359213c24b4e210d9aacc2583a7a13ce2ebddf490dc71549d86efb7b7d9[] = {
/* columns rows colors chars-per-pixel */
"32 32 210 2 ",
"   c #0D0E19",
".  c #2E2115",
"X  c #000C26",
"o  c #000B2E",
"O  c #00062A",
"+  c #06152B",
"@  c #0A162B",
"#  c #0B1A2E",
"$  c #081627",
"%  c #151C2B",
"&  c #010B36",
"*  c #011233",
"=  c #051A34",
"-  c #0C1D31",
";  c #021A3C",
":  c #05173A",
">  c #121F30",
",  c #16202B",
"<  c #132335",
"1  c #1A2735",
"2  c #1C2936",
"3  c #152539",
"4  c #1C2B39",
"5  c #07233F",
"6  c #2D3329",
"7  c #222D35",
"8  c #212E3A",
"9  c #2B3335",
"0  c #24323C",
"q  c #29353D",
"w  c #2A373C",
"e  c #333A33",
"r  c #343C39",
"t  c #373D37",
"y  c #343227",
"u  c #583D16",
"i  c #473825",
"p  c #3C433A",
"a  c #6D4A14",
"s  c #4F4829",
"d  c #5D5727",
"f  c #44473A",
"g  c #635638",
"h  c #6B6138",
"j  c #746E3C",
"k  c #79723F",
"l  c #011942",
"z  c #072346",
"x  c #172D41",
"c  c #1E364B",
"v  c #15314D",
"b  c #112F52",
"n  c #293740",
"m  c #2D3C45",
"M  c #213A4D",
"N  c #243441",
"B  c #323E44",
"V  c #223C54",
"C  c #354244",
"Z  c #3A4644",
"A  c #33434B",
"S  c #3C4B4D",
"D  c #3A484A",
"F  c #3E4D51",
"G  c #324754",
"H  c #2A4256",
"J  c #434A42",
"K  c #424F4C",
"L  c #454646",
"P  c #504E40",
"I  c #4C5245",
"U  c #45514D",
"Y  c #4A534B",
"T  c #555C4D",
"R  c #555A47",
"E  c #414F51",
"W  c #445252",
"Q  c #4E5A56",
"!  c #665C4F",
"~  c #5E614A",
"^  c #596257",
"/  c #616143",
"(  c #63654A",
")  c #6E6B45",
"_  c #746A45",
"`  c #797348",
"'  c #706F50",
"]  c #747452",
"[  c #7C7951",
"{  c #626750",
"}  c #767B63",
"|  c #797F67",
" . c #717E79",
".. c #885400",
"X. c #935C01",
"o. c #885D11",
"O. c #966204",
"+. c #81611C",
"@. c #9D721A",
"#. c #996E1F",
"$. c #B77803",
"%. c #AD7C1E",
"&. c #B57E12",
"*. c #896625",
"=. c #8C7432",
"-. c #A47A24",
";. c #827945",
":. c #827B48",
">. c #88784D",
",. c #817D52",
"<. c #BE871B",
"1. c #B9892A",
"2. c #A98737",
"3. c #B88B33",
"4. c #CF8F12",
"5. c #E09D1F",
"6. c #CB952A",
"7. c #D69E2A",
"8. c #CC9B39",
"9. c #CD952C",
"0. c #E19D21",
"q. c #D8A135",
"w. c #E7A829",
"e. c #8C844D",
"r. c #8A8147",
"t. c #988A4B",
"y. c #8C8552",
"u. c #8E895A",
"i. c #898556",
"p. c #908750",
"a. c #928A52",
"s. c #9A8F53",
"d. c #958E59",
"f. c #9B9153",
"g. c #9B935A",
"h. c #A58845",
"j. c #BB9947",
"k. c #A3995B",
"l. c #A49956",
"z. c #B59A55",
"x. c #B5A55C",
"c. c #ADA058",
"v. c #888864",
"b. c #9A9666",
"n. c #A59D62",
"m. c #ABA268",
"M. c #B4A765",
"N. c #A3A172",
"B. c #BFAF78",
"V. c #C79A43",
"C. c #C69E57",
"Z. c #CDA146",
"A. c #D6A849",
"S. c #C5A356",
"D. c #D1AD58",
"F. c #DDB65A",
"G. c #E5B14D",
"H. c #E0AC51",
"J. c #E2B658",
"K. c #C19F64",
"L. c #C9AA69",
"P. c #C7B566",
"I. c #D8BB68",
"U. c #C7AF7A",
"Y. c #CFBB76",
"T. c #DCBE71",
"R. c #E7BD64",
"E. c #FBC456",
"W. c #FECD5C",
"Q. c #F6C455",
"!. c #E7C359",
"~. c #D5C16E",
"^. c #DCC37C",
"/. c #D8C376",
"(. c #EAC36A",
"). c #F2C66A",
"_. c #FDD66A",
"`. c #E3C479",
"'. c #ECD877",
"]. c #FEDD7D",
"[. c #F8CE7B",
"{. c #FFE37F",
"}. c #FFE475",
"|. c #FFE36A",
" X c #82828B",
".X c #BEA885",
"XX c #C6BC88",
"oX c #D5C989",
"OX c #E7CF87",
"+X c #F9D885",
"@X c #EBD898",
"#X c #F7DA92",
"$X c #FFE68F",
"%X c #FEE087",
"&X c #FFF080",
"*X c #F8E89B",
"=X c #DFD4BD",
"-X c #E7D9B7",
";X c #FCE7A6",
":X c #FFFFA7",
">X c #F9EBBE",
",X c #FFF5B6",
"<X c #EEE2C6",
"1X c #FCF3C2",
"2X c #FFF8C9",
"3X c #FDF4CD",
"4X c #FBFAE9",
"5X c white",
"6X c #FBFBF5",
"7X c None",
/* pixels */
"7X7X7X7X7X7X7X7X7X7X7X7Xs.s.g.d.d.d.y.` 7X7X7X7X7X7X7X7X7X7X7X7X",
"7X7X7X7X7X7X7X7X7XB./.P.m.v.} } } } v.b.b.d.` 7X7X7X7X7X7X7X7X7X",
"7X7X7X7X7X7X7XI.1X,XY.i.T U A S D G A F ^ | b.g._ 7X7X7X7X7X7X7X",
"7X7X7X7X7X7X~.,X>XM.` ( T W U F W W F F F G W } m.r.7X7X7X7X7X7X",
"7X7X7X7X7XP.oXz.r.j ~ T Y K E E F F W F W F F A Q N.s.7X7X7X7X7X",
"7X7X7X7Xc.m.~ ~ R T R K K E D E S F F F F F W W A D N.s.7X7X7X7X",
"7X7X7Xs.b.p p T Y K Y Y D E E D F F F F F S E S F F w u.p.7X7X7X",
"7X7X) n.Z p S S D L D D D D G F D D D S S F S F W A @ 2 n._ 7X7X",
"7X7Xk.^ 0 C C Z Z 4 c H M x M V c c M M M V G W n < x # R k.7X7X",
"7X:.u.0 m m C A z  .oXa =.h.h.*.z.z.2.a h.2.C l 1 8 8 4 # u.:.7X",
"7Xg.T 8 m C H z g _.7.O.9.&X9.&.).4.1.].}.5.6.L : 4 8 4 # R f.7X",
"7Xu.m n A 4 b a 5.6.%.j.-.-.R.A.Z.2.T.D.I.R.4.9.! ; 3 8 3 2 d.7X",
"e.] 4 m N M +.4.A.x.H.A.Z...o.8.!._.7.3.Z.*X+X..u g < 4 4 # [ ;.",
"p.{ 3 n = B.W.L.1X%XL.<X;XD.#.XX4X+XU.=X1XR.6X-Xu T.' + 4 # ~ a.",
"a.Y 4 n x P W.8.j._.a  X:XG.Q.1X5X5X5X,XH.j.6XOXW.K., 3 4 - I a.",
"a.J 4 n w l f w.X.F.9.y XX].OX@X6X,X{.].G.+X;XE.C.X ; 0 4 < f p.",
"p.L 4 n q n l _ $.@.}.-.B.$XZ.@X#XQ.+X`.6.[.:XA.% & 8 4 4 > L p.",
"a.I < 0 8 q q l g a I.Q.F.[.).(.E.$XT.1.6.Y.t.6 & 8 4 7 4 # I p.",
"y.T > N 0 N q 4 v i j.'.O.(.+XZ.q.;Xx...9.*.  ; 0 8 1 4 4 + R a.",
"e.' > 8 8 8 8 q 3 x h._.O.3.).S.^.6.@.X.6.s : 4 2 2 2 4 3 # ` :.",
"7Xi.< 4 8 8 8 8 0 3 : D.|.1.1.F.+XO...7.>.& 3 8 4 4 2 4 3 2 y.7X",
"7Xs.J - 8 8 8 8 8 q : @ '.2X/.E.J.@.<.>.l > 4 4 1 2 4 4 # J s.7X",
"7Xr.] @ 4 8 4 8 8 8 8 O % <X6X).3.w.#.& - 8 1 1 2 2 4 3 $ [ :.7X",
"7X7Xg.p - 8 4 7 8 7 1 0 X . ).-Xq.Z.: = 8 4 1 7 2 2 4 + f k.7X7X",
"7X7X` a.# 3 2 4 2 1 4 2 8 o i ].F.3 = 7 2 2 2 7 7 7 < , s.k 7X7X",
"7X7X7Xf.] X 2 2 1 1 3 2 1 2 o / L o 7 2 7 9 9 0 9 7 % ,.s.7X7X7X",
"7X7X7X7Xk.( X < 4 2 1 2 1 2 8 o + 8 2 7 e e p p e y e.c.7X7X7X7X",
"7X7X7X7X7Xl.' @ + 1 2 2 1 1 1 2 2 2 7 9 e p s d j x.P.7X7X7X7X7X",
"7X7X7X7X7X7Xf.u.e + # 3 1 1 1 2 2 7 7 9 e d t.oX*X~.7X7X7X7X7X7X",
"7X7X7X7X7X7X7X;.g.] p # + # # - < , , 6 h x.,X3X/.7X7X7X7X7X7X7X",
"7X7X7X7X7X7X7X7X7Xe.s.,.( I p r p f / t.P.OXoX7X7X7X7X7X7X7X7X7X",
"7X7X7X7X7X7X7X7X7X7X7X7Xe.p.y.e.y.t.f.l.7X7X7X7X7X7X7X7X7X7X7X7X"
};
