/* XPM */
static char *_1816_29f83eff98050ec6e96ccc47d67b937969d975acaec9779f8f88fb949d490ef8[] = {
/* columns rows colors chars-per-pixel */
"64 64 247 2 ",
"   c #140301",
".  c #06030F",
"X  c #2C1200",
"o  c #36250B",
"O  c #00032C",
"+  c #000929",
"@  c #04162C",
"#  c #000932",
"$  c #011533",
"%  c #041939",
"&  c #111E37",
"*  c #1B2325",
"=  c #1B252B",
"-  c #1E282D",
";  c #1B2727",
":  c #0C223C",
">  c #152335",
",  c #1A2735",
"<  c #1C2936",
"1  c #1D2B39",
"2  c #15263B",
"3  c #1E323E",
"4  c #232B2B",
"5  c #262B26",
"6  c #2C332B",
"7  c #212D35",
"8  c #212E3A",
"9  c #263136",
"0  c #2C3435",
"q  c #24323C",
"w  c #29363D",
"e  c #2C3A3E",
"r  c #2F3837",
"t  c #343B34",
"y  c #3A3E33",
"u  c #333A38",
"i  c #383B2B",
"p  c #4A310A",
"a  c #653200",
"s  c #523D21",
"d  c #3C4235",
"f  c #3A413C",
"g  c #784900",
"h  c #7D5306",
"j  c #704E14",
"k  c #49442A",
"l  c #5B562D",
"z  c #474A38",
"x  c #4E513D",
"c  c #5D5933",
"v  c #5D5B3A",
"b  c #595535",
"n  c #534B31",
"m  c #635C34",
"M  c #625E3B",
"N  c #6A5425",
"B  c #6A6436",
"V  c #6B643A",
"C  c #6D693C",
"Z  c #666238",
"A  c #736C3C",
"S  c #736B37",
"D  c #7C733E",
"F  c #7E672A",
"G  c #55431C",
"H  c #011B43",
"J  c #001C48",
"K  c #0B2546",
"L  c #142C44",
"P  c #1C3449",
"I  c #1A3452",
"U  c #2D3A42",
"Y  c #273845",
"T  c #323E44",
"R  c #233C52",
"E  c #354245",
"W  c #394646",
"Q  c #3D4946",
"!  c #39464A",
"~  c #3D4B4D",
"^  c #34434B",
"/  c #3F4E50",
"(  c #344755",
")  c #2B4154",
"_  c #424E4C",
"`  c #444D45",
"'  c #45514D",
"]  c #4B544B",
"[  c #4D5649",
"{  c #5C5D46",
"}  c #555B4B",
"|  c #535745",
" . c #414F51",
".. c #4C4752",
"X. c #435252",
"o. c #4B5752",
"O. c #545C51",
"+. c #5C624C",
"@. c #5B6256",
"#. c #6C6C4D",
"$. c #656649",
"%. c #756E48",
"&. c #797446",
"*. c #676955",
"=. c #797857",
"-. c #6E7057",
";. c #586870",
":. c #6C6D68",
">. c #8A5B01",
",. c #875600",
"<. c #8F5D08",
"1. c #976607",
"2. c #9C6E12",
"3. c #966A1A",
"4. c #946912",
"5. c #A56B05",
"6. c #A37313",
"7. c #A7791B",
"8. c #B1770C",
"9. c #83793D",
"0. c #94732E",
"q. c #AA7D25",
"w. c #A27E39",
"e. c #847B44",
"r. c #867D4B",
"t. c #857D58",
"y. c #937E4C",
"u. c #7D8168",
"i. c #B8841B",
"p. c #AE8327",
"a. c #B28425",
"s. c #B88929",
"d. c #BB8C33",
"f. c #BD9239",
"g. c #AD8A3A",
"h. c #C88B12",
"j. c #C79328",
"k. c #D49A27",
"l. c #C39639",
"z. c #C6993D",
"x. c #C89837",
"c. c #C5912D",
"v. c #DCA12A",
"b. c #D7A338",
"n. c #E7AA35",
"m. c #8C834A",
"M. c #95894A",
"N. c #8A865B",
"B. c #948B52",
"V. c #968C57",
"C. c #9B9357",
"Z. c #9D914C",
"A. c #B89446",
"S. c #A39A5D",
"D. c #A79A56",
"F. c #A68D4B",
"G. c #B9A75A",
"H. c #B7A053",
"J. c #878768",
"K. c #9B9563",
"L. c #999569",
"P. c #999974",
"I. c #908E6A",
"U. c #A59D64",
"Y. c #A79E67",
"T. c #B09B66",
"R. c #ABA264",
"E. c #ADA46A",
"W. c #A6A06D",
"Q. c #B4AB6B",
"!. c #B5A967",
"~. c #AAA674",
"^. c #B4AB72",
"/. c #BBB377",
"(. c #BFB16C",
"). c #C99D42",
"_. c #C19D53",
"`. c #CDA249",
"'. c #D2A443",
"]. c #D9AB4A",
"[. c #C8A755",
"{. c #D6AD56",
"}. c #DEB357",
"|. c #C8B35C",
" X c #E3AF44",
".X c #E8B548",
"XX c #ECBC5C",
"oX c #E6B757",
"OX c #F1BA55",
"+X c #F3BA4A",
"@X c #C6AD65",
"#X c #C6B66A",
"$X c #D7B766",
"%X c #C6B975",
"&X c #D9BB74",
"*X c #CFAE6E",
"=X c #E9BC62",
"-X c #E0BF74",
";X c #FAC457",
":X c #EFC05E",
">X c #D4C479",
",X c #CFC079",
"<X c #EDC264",
"1X c #EBC56D",
"2X c #F2C669",
"3X c #F6C767",
"4X c #FFD76A",
"5X c #E7C67A",
"6X c #F4CE76",
"7X c #FCD778",
"8X c #ECD071",
"9X c #FFE479",
"0X c #FFEF74",
"qX c #B1B1A1",
"wX c #D5BA84",
"eX c #D0B78A",
"rX c #C8BDAE",
"tX c #E5BE80",
"yX c #DACA86",
"uX c #D1C792",
"iX c #E6C985",
"pX c #E7D587",
"aX c #F9D887",
"sX c #EBD795",
"dX c #F3D390",
"fX c #FEE688",
"gX c #FEE997",
"hX c #FFF793",
"jX c #D4C7AE",
"kX c #E9DAB3",
"lX c #F6E5AA",
"zX c #FDF8A6",
"xX c #F7E7B6",
"cX c #FCF6B9",
"vX c #EEE5B8",
"bX c #E2D9C3",
"nX c #FCF6C9",
"mX c #FEFED4",
"MX c #FFFEDC",
"NX c #FCF3D8",
"BX c #F4EBCF",
"VX c #FFFFE4",
"CX c #FFFFEA",
"ZX c #FFFFFE",
"AX c #FDFDF6",
"SX c #EFEBE3",
"DX c None",
/* pixels */
"DXDXDXDXDXDXDXDXDXDXDXDXDXDXDXDXDXDXDXDXDXDXDXDXDXDXC &.C C C C C C Z M Z +.DXDXDXDXDXDXDXDXDXDXDXDXDXDXDXDXDXDXDXDXDXDXDXDXDXDX",
"DXDXDXDXDXDXDXDXDXDXDXDXDXDXDXDXDXDXDXDXDXDXB.M.M.Z.D.S.R.E.E.E.E.E.W.R.C.V.m.&.$.$.DXDXDXDXDXDXDXDXDXDXDXDXDXDXDXDXDXDXDXDXDXDX",
"DXDXDXDXDXDXDXDXDXDXDXDXDXDXDXDXDXDXDXDXD.H.!.#X%X(.^.W.P.I.I.u.u.J.I.L.P.~.~.R.S.m.A Z DXDXDXDXDXDXDXDXDXDXDXDXDXDXDXDXDXDXDXDX",
"DXDXDXDXDXDXDXDXDXDXDXDXDXDXDXDXDXG.|.>XpXpX>X^.K.=.*.+.[ ] / O.O.' / o.o.@.*.u.P.~.^.R.e.V v DXDXDXDXDXDXDXDXDXDXDXDXDXDXDXDXDX",
"DXDXDXDXDXDXDXDXDXDXDXDXDXDXDXDX$XpXlXlXsX/.C.=.$.+.O.o.o.o./ o.o.X.X.o.o.o.X.o.X.@.u.P.^.R.&.$.DXDXDXDXDXDXDXDXDXDXDXDXDXDXDXDX",
"DXDXDXDXDXDXDXDXDXDXDXDXDXDX|.yXnXAXnXuXE.C.m.*.+.O.O.O.' ' o./ X.X.X.X.X.X.X.X.o.o.' ] -.P./.U.A v DXDXDXDXDXDXDXDXDXDXDXDXDXDX",
"DXDXDXDXDXDXDXDXDXDXDXDXDX#XpXnXVXvX%XG.B.m.#.+.-.O.o.o./ X.' ' X.X.X./ X.X.X.X.X.X.X.o.X.] -.~./.m.v DXDXDXDXDXDXDXDXDXDXDXDXDX",
"DXDXDXDXDXDXDXDXDXDXDXD.G.pXlXsX>X@XD.B.=.*.#.*.} O.' ' o./ / / X.X.X.X./ X./ X.X./ X.X.X.o.X.[ J.eXC.C $.DXDXDXDXDXDXDXDXDXDXDX",
"DXDXDXDXDXDXDXDXDXDXm.G.8XyXQ.G.D.B.M.&.#.+.*.$.' o.] _  . . . ./ / / X.X./ X.X./ X.X./ X.X.X.X.~ *.~.(.D b DXDXDXDXDXDXDXDXDXDX",
"DXDXDXDXDXDXDXDXDXm.H.>X/.C.B.m.=.&.#.#.+.+.| ' ] '  . . . . .~ / / / / / / / / / X.X./ X./ X.' X.' O.P.Q.D $.DXDXDXDXDXDXDXDXDX",
"DXDXDXDXDXDXDXDX&.F.>XU.&.&.#.#.#.$.$.} +.[ [ o.' '  ._  ._ ~  .~ ~ / / / / / / / X.X./ / X.' X.' X.' ` P./.D v DXDXDXDXDXDXDXDX",
"DXDXDXDXDXDXDXA M.%XV.+.+.+.} +.+.} } | O.' ' ] _ _ ! _  .~  .~  ./ / / / / X.~ / / / / / / / / / / / ' _ P.%XD b DXDXDXDXDXDXDX",
"DXDXDXDXDXDXDXD %XI.x | | ` $.$.[ | ] [ _ } ' _ _ _ ~ ! ~ ~ ~ ~ / ~ / ~ ~ / / / / / / ~ / / / / / / / ' O.f J.Q.C DXDXDXDXDXDXDX",
"DXDXDXDXDXDXB !.L.z ` ' ' _ +.} ` ` ] _ Q +.} ^ _ ! ~ _ ~ ~ ~ ~ / ~ / ( / ~ ~ / ~ / / ~ / ~ / / / / / o.! < 5 L.!.m DXDXDXDXDXDX",
"DXDXDXDXDXc C.~.x Q ` ` Q ' Q Q _ _ _ Q Q ~ / ! ! ! ~ Q ^ ! ( ! ~ ~ ! ! ! ~ ~ ~ ~ / ~ ~ ~ ~ / / / / X.^ > 1 7 i ^.B.Z DXDXDXDXDX",
"DXDXDXDXDXm./.@.f W Q Q W Q Q Q Q Q W _ _ ^ ! ! ! ~ ! !  .T _  .! ~ ~ ~ / ! ~ ~ ~ ~ ~ / ~ ~ ~ ~ / / U > 1 3 q ; { /.&.DXDXDXDXDX",
"DXDXDXDXB Q.J.t W E E E W W ! Q E Q E Q Q Q Q ! T ! ! T ! ! _ T ~ Q ! ! / ~ ! ^ ! ~ ~ ~ ! ~ ~  ./ w > 3 8 1 8 q - N.!.c DXDXDXDX",
"DXDXDXc B.W.z E E ^ E E W E E E E ^ ~ < ; L I ) R R R R I L R R L L P R R R R ) ) P P R / ~  .~ 3 < 8 8 1 1 1 q 7 d ~.r.$.DXDXDX",
"DXDXDXZ ^.=.e E E T T T E E E E E ! & ;.qXI.m k l m m M %.V.t.M t.I.N.%.M m l s k t.V.#.I ( _ 1 , q 8 1 Y 1 1 8 q ; =.Q.Z DXDXDX",
"DXDXDXB.W.f f E T T T T E T T E E : ;.cXgX+Xj.5.h.j.n.;X;X.X5.7.4X+X;X;X+Xk.5.1.].+Xn.k.F L @ 8 3 1 1 3 1 8 1 1 < 7 y E.m.DXDXDX",
"DXDXZ !.=.r E e T T T T T T ^ ^ K k 9X+Xs.s.p.2.3.6X7X}.l.7.,.a.3X).s.p.l.s.$XfX3X].l.s.h.w.L # q 1 1 8 8 1 1 8 1 8 ; =.R.c DXDX",
"DXDX&.~.' E U U T U U T U ^ Y I G k.;Xz.f.p.1.h 4.f.7X<X).z.6.s.3X`.l.6.a g.pXzX7XoX].z.q.k.$XR # q 8 1 1 8 1 8 1 8 7 x E.D DXDX",
"DXZ C.I.f E U U T U T e E P P j 5.].}.l.7.>.3.z.].<.3.7X2Xz.a.l.2X`.d.1.H.gXA.q.dX7X.X`.l.q.k.{.X.# 1 8 3 8 1 1 1 1 7 6 K.C.v DX",
"DXB R.-.9 e U U U U T T L I w.5.s.oXx.6.2.H.=X'.[.p.,.<.<X3Xd.).2Xb.p.$XfX+X>Xd.c.iXdX].b.l.q.<.{.*.# 1 8 1 8 1 1 8 8 4 #.E.m DX",
"DX&.R.[ w e U e U U E : T ).5.2.}.x.6.A.5X3Xj._.$Xq.a.>.h $XoX`.:X).8XgXXXb.&X&Xj.'.6XlX{.j.l.,.p $Xr.O 1 1 < 3 1 1 1 < x E.A DX",
"DXB.L.d e U Y e U E % e  X5.,.x.b.g.&X7X.X8.1.&X Xc.s.7.,.g d. XoXgXfXOX].c.7.wXb. X+X7XcX-Xh.<.X   {.0.+ 1 8 1 8 1 1 7 y U.r.DX",
"v C.N.0 e w Y U U > O.hXA.j x.aXkXxXgXoX$X{.eXBX-X&X`.f.p.3.j *XnXfXOX].x.c.p.bXxXdXgXzXVXZXvXw.s . 5 7Xy.% > 8 8 1 1 8 4 V.V.M ",
"m R.=.9 e w w U U $ ~.lXkXdX-XrXAXxXiXlXjXrXZXZXNXxXiX&X&X&XjXZXZXNXNXBXBXSXZXZXZXBXkXwXeXAXZXBX*XA.rXNX{.L > 8 1 1 1 1 4 =.S.c ",
"Z E.+.0 e Y w w e P w 7.v.7Xx.>.g.7Xx. X8.a n MX4XOX'.'.].k.].AXMXMXVXVXCXAXmX7XoXb.8.3.jXZXnXx.h.c.BX8.o : 1 1 1 1 1 1 < #.D.Z ",
"S W.+.0 w q w Y Y u : ) i.b.oXa.g |.7Xz.l.,.  qXzXXXXXoX3X+XdXCXmXMXmXVXVXcXgX6XOXx.z.cXMXVXiXk.s.kXc.p J 1 1 1 1 1 1 < - +.U.C ",
"A Y.[ w w w w w w w e % ! j.b.l.1.,.2X=X'.a.  ..MXXX=X6XzXfXsXmXmXMXCXMXzX7XfX7XXX}.aX7XfXnX}.j.sX*Xp H 1 1 1 1 1 1 1 1 ; | U.A ",
"D R.z q q q w w w w Y e H z k.b.7.g p.6XoX].6.. jXgX XxXSXz.*XcXMXAXcXfX4X3XgXaXoX3XXXOXVXdXv.tX-Xa H 2 1 1 1 1 1 < 1 1 - | U.A ",
"&.U.` 9 w q Y 9 9 Y Y w e H z k.s.h h }.=X{. X>.:.xXOXaXoXq.5XnXcX=X3XfX;X6XmXoX'.{.'.7XcXOX5XaXg % 2 1 1 , 1 1 1 1 1 < , x U.A ",
"D Y.x 7 8 w 8 Y w 8 w q w e J M v.>.g A.3XoX`.k.$XlXXX3XOX].iXcXaXb.7XgX].sXsXs.x.l.].aXhX9XdX<.+ K 8 1 1 1 1 1 1 , , 8 - | U.A ",
"A U.| 0 w 8 q q w 8 w w w Y Y % M.7.X <.4X<X}.`.x.dXaX<X3X1XiX<X7X=X7XgX{.iXc.s.s.l.OXcX,XD.q.+ K 7 , 1 1 1 , < 1 , 1 < - { U.V ",
"B Y.+.7 q q q q Y w 8 q w 8 w 8 H D.j . `.fX1X}.a.{.aX<XXXdX-Xb.6X3XfXgX&X$Xi.7.7.'.3X:.5 4.= H 7 1 1 1 1 1 1 1 < 1 , 8 - #.T.m ",
"m Y.#.4 9 8 w q 8 w w Y q w q w > L [.o p fXaX[.x.q.1X6X=XaX$Xx.<XoXfXcX*Xf.7.4.q..Xy.  3.y % 8 1 1 1 1 , 1 1 , 1 < < < - -.S.m ",
"m U.=.4 8 8 8 8 8 8 8 8 8 q q q e : Y A.p `.zXp.6.6.'.7X=X6X`.c.].].{.NX@X5.2.1.6.`.j <.z % 1 1 1 1 1 1 1 1 1 1 < < < 7 5 t.C.M ",
"DXC.I.6 8 8 8 q Y 8 8 q q q q q q e % ( g.5.zXA.6.2.7.2X7X1Xa.&X&Xb.c.{.A.>.1.1.6.A.5.y H 1 < 1 1 1 , , , 1 1 , 1 < < < 0 C.m.DX",
"DXe.K.d 0 8 8 8 8 8 8 8 q q 8 8 q q w % T j.pX&Xj.l.g ).fX$X5.5XnX'.s.i.1.2.2.>.A.b.p J 1 , 1 1 < 1 1 1 1 , < 1 1 , < < z Y.&.DX",
"DXV R.{ 7 q 1 8 8 8 8 8 q 8 8 q q 8 8 w $ ^ 2X<Xx.1Xq.1.fXz.2.:XhX}.q.6.1.6.1.3.3XN % , 1 1 1 1 1 , 1 1 1 , 1 , 1 , 1 - $.R.m DX",
"DXc Y.=.5 1 1 8 8 8 8 8 q 8 8 Y q 8 q q w $ _ 4XOXXX7X3.).}.z.<X7XoX7.1.2.2.,.XXV.O 2 8 , 1 1 , 1 1 , 1 1 2 1 1 1 , < 4 N.C.c DX",
"DXDXm.K.t q 7 1 8 8 1 8 8 8 8 8 8 8 q 8 q 8 O @.0X4X7XpXA.:XoX<X<XoX3.2.2.<.c.eX+ & 8 , , 1 1 1 1 2 1 , , , , 1 , 1 < y Y.e.DXDX",
"DXDXV Q.| - 9 1 1 8 8 8 8 8 8 8 8 q 8 q 8 7 7 O -.hXzXMXBXXX3X2X].`.s.p.6.5.T.K @ 8 1 , 1 1 , , , 1 , 1 1 1 1 , , 1 * #.E.m DXDX",
"DXDXDXC.N.4 q 7 1 8 1 8 8 1 1 8 8 8 8 8 7 , 8 , . t.CXZXZXaX3X8Xz.z.f.p.h.7.H @ 8 8 1 , 1 , < < , < < < < < , 1 , 7 6 L.B.DXDXDX",
"DXDXDXS Q.x - 1 1 8 7 1 1 8 8 8 8 8 8 8 , , , 8 > + M.gXSXCX9XpXa.d.).k.j.: $ 8 , 1 1 , , 1 < < < < < < < < , < 1 * { Q.B DXDXDX",
"DXDXDXb S.I.5 7 < 1 8 1 8 1 8 < 8 8 1 , 1 , , , 8 & O q.n.%XmXsX1.d..Xn.< % 1 , 1 7 < < < < < < 1 < < < < < , < 7 5 U.B.c DXDXDX",
"DXDXDXDXS Q.| ; < < 1 1 1 < 1 1 8 1 , , 1 1 , 1 , 7 & & '.h.bXBX>..X;Xy # 8 < < , < 1 < < 7 < 7 7 < 7 < < < 1 7 * #.Q.m DXDXDXDX",
"DXDXDXDXDXB.W.6 4 1 1 1 1 1 1 1 1 , , 1 1 , , 1 , , 8 $ & b.aXrX6.0Xb + 1 < < < < < < 7 7 < 7 7 7 7 7 < 7 9 1 4 d ~.m.DXDXDXDXDX",
"DXDXDXDXDXm E.t.; 9 < < , < 1 < , , < , 1 1 , 1 1 , < 1 # = 2XiX+Xt.O < < < < 1 7 < 1 7 7 9 0 7 7 9 7 7 9 9 9 ; K.D.c DXDXDXDXDX",
"DXDXDXDXDXDXS (.{ * 1 , < < < < , 1 , , , , 1 , < , , , 7 # 0 9XM.O > < < < < 7 0 < 7 7 9 0 0 9 0 0 0 9 7 9 ; %.(.B DXDXDXDXDXDX",
"DXDXDXDXDXDXDXm./.z - 7 , 1 < , , , 1 1 , , , , , < < < 1 1 @ u : & 7 < < < < < < 9 r r 0 0 r t 0 r 0 0 r 6 Z %X9.DXDXDXDXDXDXDX",
"DXDXDXDXDXDXDXb B.^.d ; < < , , , , < , , < , , < , , , 1 , 1 $ > 7 < < < < 7 4 4 9 r r r t t d d y d d i c %XM.c DXDXDXDXDXDXDX",
"DXDXDXDXDXDXDXDXl C.~.d * 8 , , , , , < < , , , 1 , , , , , , 1 , , < , 7 7 7 r d t 0 y d d d z b n z n D %XD.B DXDXDXDXDXDXDXDX",
"DXDXDXDXDXDXDXDXDXl F.~.z * 7 , , , , < , , , , , , , , 1 , 1 , , , , 7 7 7 7 r d z y d z n b l b Z Z m.,XH.9.DXDXDXDXDXDXDXDXDX",
"DXDXDXDXDXDXDXDXDXDXl B.Q.{ * , < , , > 1 , , , , , , 1 , , , , , , , 7 7 7 0 0 0 i z x c C S D e.m.R.5XH.M.DXDXDXDXDXDXDXDXDXDX",
"DXDXDXDXDXDXDXDXDXDXDXl m./.=.6 * < < , , , , , , , , , , , , , , 7 0 7 7 0 0 t d d b Z D e.Z.D.(.yXpX|.M.DXDXDXDXDXDXDXDXDXDXDX",
"DXDXDXDXDXDXDXDXDXDXDXDXDXS !.Y.| 5 - < < , , , , , , , , , < , , 7 0 7 7 0 r i d n V D Z.G.>XkXxXsX(.DXDXDXDXDXDXDXDXDXDXDXDXDX",
"DXDXDXDXDXDXDXDXDXDXDXDXDXDXl B.^.N.z ; = < , , , , , , , , , , , < - 7 0 6 t y b A D Z.#XvXAXMXpX(.DXDXDXDXDXDXDXDXDXDXDXDXDXDX",
"DXDXDXDXDXDXDXDXDXDXDXDXDXDXDXDXB S.Q.N.x 6 ; - < < < , , - , , , < 7 7 0 r d z B 9.S.yXcXMXxX>XDXDXDXDXDXDXDXDXDXDXDXDXDXDXDXDX",
"DXDXDXDXDXDXDXDXDXDXDXDXDXDXDXDXDXb S D.E.K.-.x 6 5 * = = , , - 7 4 7 4 6 i n B M.(.yXgXsX>X|.DXDXDXDXDXDXDXDXDXDXDXDXDXDXDXDXDX",
"DXDXDXDXDXDXDXDXDXDXDXDXDXDXDXDXDXDXDXDXB M.S.Y.K.N.-.{ x z y y y d z | #.m.S.(.&X>X#XG.DXDXDXDXDXDXDXDXDXDXDXDXDXDXDXDXDXDXDXDX",
"DXDXDXDXDXDXDXDXDXDXDXDXDXDXDXDXDXDXDXDXDXDXm S e.C.S.U.U.S.K.K.K.U.Y.G.G.!.H.D.Z.Z.DXDXDXDXDXDXDXDXDXDXDXDXDXDXDXDXDXDXDXDXDXDX",
"DXDXDXDXDXDXDXDXDXDXDXDXDXDXDXDXDXDXDXDXDXDXDXDXDXDXl Z V A 9.9.&.D 9.D B S DXDXDXDXDXDXDXDXDXDXDXDXDXDXDXDXDXDXDXDXDXDXDXDXDXDX"
};
