/* XPM */
static char *cc8285999c134318e7675b9633a2aa6e[] = {
/* columns rows colors chars-per-pixel */
"128 128 74 1 ",
"  c #23395C",
". c #233A5C",
"X c #233A5D",
"o c #233A5E",
"O c #233B5E",
"+ c #233B5F",
"@ c #233B60",
"# c #243C60",
"$ c #243C61",
"% c #243C62",
"& c #243D62",
"* c #243C63",
"= c #243D63",
"- c #243D64",
"; c #243D65",
": c #243E64",
"> c #243E65",
", c #243E66",
"< c #243F66",
"1 c #243E67",
"2 c #243F67",
"3 c #243F68",
"4 c #243F69",
"5 c #244069",
"6 c #24406A",
"7 c #24406B",
"8 c #25416B",
"9 c #25416C",
"0 c #25416D",
"q c #25426D",
"w c #25416E",
"e c #25426E",
"r c #25426F",
"t c #25436F",
"y c #254270",
"u c #254370",
"i c #254371",
"p c #254372",
"a c #254471",
"s c #254472",
"d c #254473",
"f c #254474",
"g c #254574",
"h c #254575",
"j c #254576",
"k c #264676",
"l c #264677",
"z c #264678",
"x c #264679",
"c c #264779",
"v c #26477A",
"b c #26477B",
"n c #26487A",
"m c #26487B",
"M c #26487C",
"N c #26497C",
"B c #26487D",
"V c #26497D",
"C c #26497E",
"Z c #26497F",
"A c #264A7F",
"S c #264A80",
"D c #264A81",
"F c #274B81",
"G c #274B82",
"H c #274B83",
"J c #274C83",
"K c #274B84",
"L c #274C84",
"P c #274C85",
"I c #274C86",
"U c #274D86",
"Y c #274D87",
"T c None",
/* pixels */
"YYHYHJHHHZSSZZZmmvmmccccxkkjjjjdgygysyyyqTTTTTTTTTTTTTTTTTTTTTTTTTTTTTTTTTTTTTTTTTTTTTTTTTTTTYYYHYKYHYHHHHHHHZSLSSSSZZZZZmmZmmmm",
"TYYJHHHHZHSZZZZZmZmvccxxxkjjjdddgyyssqyq4TTTTTTTTTTTTTTTTTTTTTTTTTTTTTTTTTTTTTTTTTTTTTTTTTTTJYYYYHYJJJHHHHHHSZSSSSZSZZmZZZZmmZcT",
"TYHHHHAAAABAZZmmmmvvcxkkkjjjddddysyyqqqyTTTTTTTTTTTTTTTTTTTTTTTTTTTTTTTTTTTTTTTTTTTTTTTTTTTTYYKYHJJHHHHHHHKSSSSSSZZZZZZmmZmmxAAT",
"TTHHHAHAHBAAmmmmvvvvxkkjjjddddddsyyyqyqqTTTTTTTTTTTTTTTTTTTTTTTTTTTTTTTTTTTTTTTTTTTTTTTTTTTYYHYJYHYHHHHHKSSSSSSSZZZZmZZZmmmZccTT",
"TTHHAAAAABAAcAxAvjxxkkjjjjddddtdyyqqqqwTTTTTTTTTTTTTTTTTTTTTTTTTTTTTTTTTTTTTTTTTTTTTTTTTTTTYKYYHHHHHHHHHSSLSAAZZZZmZZmZmcAAxAxTT",
"TTTHAHBAAAxxAcxccxxkkjjddddpdtttyyqyq87TTTTTTTTTTTTTTTTTTTTTTTTTTTTTTTTTTTTTTTTTTTTTTTTTTTHYYKHYJHHHHHHASSSSAAZZZZZZmZmmAcxAxTTT",
"TTTHAAABAxAAcxcckkkxjjdjddppppttqqqqq7TTTTTTTTTTTTTTTTTTTTTTTTTTTTTTTTTTTTTTTTTTTTTTTTTTTTYHHHJKHHHHHHAHSSSAAZZZZZmZZmmmxcxxcTTT",
"TTTTBBABAcxccccxxkjjjjddddppttttqqq8q7TTTTTTTTTTTTTTTTTTTTTTTTTTTTTTTTTTTTTTTTTTTTTTTTTTTYHYJYHHHHHHAAHASSSZZZZZZmZmmmZmxAxATTTT",
"TTTTTABxAAxxxkxkzzgggggstdpttywwww777TTTTTTTTTTTTTTTTTTTTTTTTTTTTTTTTTTTTTTTTTTTTTTTTTTTTHJHJHHHHHAHSSSSSZZZZZmZABAxxAcAxcccTTTT",
"TTTTTAxAxxccxxkkkggggssypttpt4ww77777TTTTTTTTTTTTTTTTTTTTTTTTTTTTTTTTTTTTTTTTTTTTTTTTTTTYYJYHHHHHHHASSSSSSZZZZZmxAxAAcBcxAcTTTTT",
"TTTTTTAccccxkkkjjjgffyystpt4www77777TTTTTTTTTTTTTTTTTTTTTTTTTTTTTTTTTTTTTTTTTTTTTTTTTTTTHJHHHHHHHZAHSSAZZZZZZmvZAxAcxxccxccTTTTT",
"TTTTTTxcccxkkjjjkygsgysyttttw77w7754TTTTTTTTTTTTTTTTTTTTTTTTTTTTTTTTTTTTTTTTTTTTTTTTTTTYYKHHHHHSSHAASAZZZZZZZMZvxAcxAcccxcTTTTTT",
"TTTTTTTxxxkkjjdjjkyjyysyqqqq7877752TTTTTTTTTTTTTTTTTTTTTTTTTTTTTTTTTTTTTTTTTTTTTTTTTTTTJHHHHHHSSSSSSZZZZmZZZmmvZccAxccAxcxTTTTTT",
"TTTTTTTxxkkjjjddyyyyyyyqqqq87777742TTTTTTTTTTTTTTTTTTTTTTTTTTTTTTTTTTTTTTTTTTTTTTTTTTTJHHHHHYSSSSSSZZZmZAmmZZmZmAxxxccxxxTTTTTTT",
"TTTTTTTTkkjdjdjdkyyaqyqqqq77775542TTTTTTTTTTTTTTTTTTTTTTTTTTTTTTTTTTTTTTTTTTTTTTTTTTTTHHHHAHSSSSSSZZZZZZZmZmmmmmAccAccxxxTTTTTTT",
"TTTTTTTTkkjjddpdyayyyyqqqq77575542TTTTTTTTTTTTTTTTTTTTTTTTTTTTTTTTTTTTTTTTTTTTTTTTTTTHHHHAHASSSSSZZZZZZmmZmmmmmvxxxxcxxxTTTTTTTT",
"TTTTTTTTTgggggfyyawwqqqq847752222TTTTTTTTTTTTTTTTTTTTTTTTTTTTTTTTTTTTTTTTTTTTTTTTTTTTHHHYSSSSSSZABAABAAAxAcxxAxAxcccxxxkTTTTTTTT",
"TTTTTTTTTgygyyyyywwtqq88w47722222TTTTTTTTTTTTTTTTTTTTTTTTTTTTTTTTTTTTTTTTTTTTTTTTTTTHHHHSSSSSSZZBABAAAxxAcAAcxxcxccxkxkTTTTTTTTT",
"TTTTTTTTTTssgyyytttw887747242222TTTTTTTTTTTTTTTTTTTTTTTTTTTTTTTTTTTTTTTTTTTTTTTTTTTTHHAHSSSSSZZZABAxxBxAxAxxcAcccxxkxkkTTTTTTTTT",
"TTTTTTTTTTsysyyqw7ww777574222*22TTTTTTTTTTTTTTTTTTTTTTTTTTTTTTTTTTTTTTTTTTTTTTTTTTTHHAHASSSSSSZZBAABBBAxcxAxxxccxkxxkxTTTTTTTTTT",
"TTTTTTTTTTTyyyqqww8877554222222TTTTTTTTTTTTTTTTTTTTTTTTTTTTTTTTTTTTTTTTTTTTTTTTTTTTKAAHAAAAZZmZZABBBAxAAAccccccxxxxkkxTTTTTTTTTT",
"TTTTTTTTTTTsqyyqw7877755222*2%&TTTTTTTTTTTTTTTTTTTTTTTTTTTTTTTTTTTTTTTTTTTTTTTTTTTHSAHAAZZZZZZZmBBxBxAxcxxAcccxxxkkxkTTTTTTTTTTT",
"TTTTTTTTTTTTqqq8787575552*222&TTTTTTTTYYYKYJYHHHFAFAFFMFMMMMMzMzzzzzzjzgkaTTTTTTTTSSSZHAZZZmZZmZAxAxxcAcccxxxkxxkkkkkTTTTTTTTTTT",
"TTTTTTTTTTTTqqq87777555&242%%2TTTTTTTTYYKYHHHHAHHHAAMMFMMMMMbMznzzzgjkzgkTTTTTTTTHSSZHABZZZZZmZvxAxAAxxcccxxxxkkkxkkTTTTTTTTTTTT",
"TTTTTTTTTTTTTq877444442**22%%TTTTTTTTYYHYJHHHHHAAABABAAxMMMMznzzzgzgjjdjpTTTTTTTTHAAZZZZmZmZZZvZAxxAxccAccxxkkxkxjkkTTTTTTTTTTTT",
"TTTTTTTTTTTTTT7774442*222*&&%TTTTTTTTKHYHHHHHHBHHBABAxBBMznzzzngzzkzjjddTTTTTTTTHAAAZZZZZZZmvZmmAcxAxxxxxxkxkxkjjfkTTTTTTTTTTTTT",
"TTTTTTTTTTTTTT772242222%%%%%TTTTTTTTYYHKHHHSZZAABBAAAxxAMbMzzzzzjkkkkfkaTTTTTTTTAHHBZZZZZmmZmmZmxAxcccxxxxxkkkjjjjkTTTTTTTTTTTTT",
"TTTTTTTTTTTTTTT442*22*2&%2%%TTTTTTTTKJHHHHSSZZABBABBxAcxznzzzzgzjkkyykyTTTTTTTTAAABAZZZZZZmmmmmmccxxccxkkxkxxjjjdjTTTTTTTTTTTTTT",
"TTTTTTTTTTTTTTT422222%2%&%&TTTTTTTTHJHHJAZSSHABAAAxAAAxxzzzzzzzgjjddddaTTTTTTTTHABZZZZZvmmZmmmvvcccccxxkxkkjjjjdjkTTTTTTTTTTTTTT",
"TTTTTTTTTTTTTTTT222%%2%%%%%TTTTTTTTYHJAYAHSZAxABxxAxxxcczzzzgzggkydddtTTTTTTTTAHMHZZZmMZZmmmmvvvcccxxxxkkkjjjjjjdTTTTTTTTTTTTTTT",
"TTTTTTTTTTTTTTTT22%%&&&O%OTTTTTTTTHHHHSSAAZZAAAxAxxBcccxzggjzjggfjpdpyTTTTTTTTABMSMZZZMvmmmmvvvvccxxkxkxkjjjdjkkkTTTTTTTTTTTTTTT",
"TTTTTTTTTTTTTTTTT%2&&%%%&OTTTTTTTTHHAHSSSZZZAAxAxAAcccxkzzgjjjffppdptTTTTTTTTAAASMSMvmvZmmmmvvvvcxxxkxkkjjjjdjykTTTTTTTTTTTTTTTT",
"TTTTTTTTTTTTTTTTT&2&%%O%+TTTTTTTTHHHZSSSZZZmZmmmMzzzMzzzzzgggffgkyayyTTTTTTTTABAAABAAxAcAcAcccccxxxkkkjjjjjjddakTTTTTTTTTTTTTTTT",
"TTTTTTTTTTTTTTTTTT%%O%+++TTTTTTTTHHAHAZZZZZvmmmvbbnzzzgzggggfgygyayaTTTTTTTTABABxBBxxAxxxxxcccxxxxkxxjjjdjjddjkTTTTTTTTTTTTTTTTT",
"TTTTTTTTTTTTTTTTTT%%%O%+TTTTTTTTAHAAAABAZZvZmmvvbzzzzgzzggggssssyaayTTTTTTTTABBAAxxAAxcAxccccxxkxkxkjjjjdjdjdddTTTTTTTTTTTTTTTTT",
"TTTTTTTTTTTTTTTTTTT+OO++TTTTTTTTHHAAABAAvMmmmvvvzzzggzgggfffggyyyywTTTTTTTTABAAAxAAxAcxxAcccxxxkkkkjjjjjjjddddTTTTTTTTTTTTTTTTTT",
"TTTTTTTTTTTTTTTTTTT%OOOOTTTTTTTHAAAABAAxAccxvvvjzzzzgzggffgsyyqsyywTTTTTTTTAAxAxAAxAxxxAxxcxxxkxkjjjddjjjpjdykTTTTTTTTTTTTTTTTTT",
"TTTTTTTTTTTTTTTTTTTTOO TTTTTTTTAAABAABAxcxAAvvxkgzgzgggfffgyyssywyTTTTTTTTAABBxAxccxAcccxxxkckkkjjjdjjddpjpdaTTTTTTTTTTTTTTTTTTT",
"TTTTTTTTTTTTTTTTTTTTOOOTTTTTTTHABBABBAxAAxcccxxkzzfzgfggysyssyyywtTTTTTTTTxAxAxAxAAxccccxxkxckkjjjjjjdjdkpkajTTTTTTTTTTTTTTTTTTT",
"TTTTTTTTTTTTTTTTTTTTT TTTTTTTTAAHBBABxAxcxcckxkkfzggffsgfysyyyqqtTTTTTTTTBAxAxAcccxxcccxxxkkkkjjjjdjdjddykyyTTTTTTTTTTTTTTTTTTTT",
"TTTTTTTTTTTTTTTTTTTTTTTTTTTTTFMFAAAcxAAcccxxkxkjggzffysyyyyyyqy47TTTTTTTTAxAxcAxcAcccxxkckkkjjjdjgjddjpdddptTTTTTTTTTTTTTTTTTTTT",
"TTTTTTTTTTTTTTTTTTTTTTTTTTTTTMFFxAxAcxxccxkxkjjjggffsssysyyqyyqqTTTTTTTTAxAxxAxxxxccxxxxkkxjjjjjjgjddddddtyTTTTTTTTTTTTTTTTTTTTT",
"TTTTTTTTTTTTTTTTTTTTTTTTTTTTHAMMAxxcAxccxkxkjjjdffgssgysyyyqqq8qTTTTTTTTcAAxcxxAxccxxxkkkkjjjjjjdjddddppyaaTTTTTTTTTTTTTTTTTTTTT",
"TTTTTTTTTTTTTTTTTTTTTTTTTTTTABMMxAAccxcxxkkjjjjdgsssyyyyyyqqy4qTTTTTTTTAAcxxcAxcccxxxkkxjjjjjjddddddddppayTTTTTTTTTTTTTTTTTTTTTT",
"TTTTTTTTTTTTTTTTTTTTTTTTTTTAMMMMcxxcckxkkkjjdjddsssyyyyyqqyqqq8TTTTTTTTAcAxAccccxxxxkxkjjjjjjdjdjdddddptyaTTTTTTTTTTTTTTTTTTTTTT",
"TTTTTTTTTTTTTTTTTTTTTTTTTTTAMMMMAxAcxckxjjdjdjddsyysyyqqqqqq87TTTTTTTTcxxAxccccxkxkkkkjjjjdjdjpdddtdptptyTTTTTTTTTTTTTTTTTTTTTTT",
"TTTTTTTTTTTTTTTTTTTTTTTTTTAxMMMzxxxkckkjjjdjdtddyssyyqyyy44q77TTTTTTTTAxccAcccxxxkkxkjjjjdjjdjdddtddtpppaTTTTTTTTTTTTTTTTTTTTTTT",
"TTTTTTTTTTTTTTTTTTTTTTTTTTAcMzMncxxkkkjjjjdddddtsyyyqyy4qqq47TTTTTTTTAccxxxcxxkxxkkjjjjjjdddddddddtdptttTTTTTTTTTTTTTTTTTTTTTTTT",
"TTTTTTTTTTTTTTTTTTTTTTTTTTMMMznzxxkxjjjdggfssyysyyyqqq4y87755TTTTTTTTxxxxxcxkxxkzgzjjjjjyyjydddpyayatawaTTTTTTTTTTTTTTTTTTTTTTTT",
"TTTTTTTTTTTTTTTTTTTTTTTTTTMzzMnzxkkjjjjdsgyggysqyqqy4y4q7775TTTTTTTTAccAccxxxkkkgjgzjjkjkjykdpppayaaayyTTTTTTTTTTTTTTTTTTTTTTTTT",
"TTTTTTTTTTTTTTTTTTTTTTTTTTTMnzzzkkjjjjdjssysysyyqqqqyqq47574TTTTTTTTcccccxkxxkxkjjjzjkyyjpkyppyyykawwywTTTTTTTTTTTTTTTTTTTTTTTTT",
"TTTTTTTTTTTTTTTTTTTTTTTTTTTzzzzgjjjjddddgysyyyyqqyqq444q774TTTTTTTTxcccxxxxkkkkkjjjgykjjppkakyayyyyyywTTTTTTTTTTTTTTTTTTTTTTTTTT",
"TTTTTTTTTTTTTTTTTTTTTTTTTTTTzgzgjjddddddysysyqqyqq88qq44822TTTTTTTTcccxxkxkkkvffzgggffgydddptpjyyywywtTTTTTTTTTTTTTTTTTTTTTTTTTT",
"TTTTTTTTTTTTTTTTTTTTTTTTTTTTzzzzjjdddddtyyyyyyqq488744q445TTTTTTTTcccxxkkxkkkfjjggffffggdppptpy4yyawwTTTTTTTTTTTTTTTTTTTTTTTTTTT",
"TTTTTTTTTTTTTTTTTTTTTTTTTTTTTgggdddddpdtyyyqq44qqq77844441TTTTTTTTcxxxxxxkjjjjjjgffgygsspppppptptwwwwTTTTTTTTTTTTTTTTTTTTTTTTTTT",
"TTTTTTTTTTTTTTTTTTTTTTTTTTTTTgggjdddptdtyyyqyyq8q47744148TTTTTTTTcxxxkkkkjjjjdjjfffgyggyptttttttwtwtTTTTTTTTTTTTTTTTTTTTTTTTTTTT",
"TTTTTTTTTTTTTTTTTTTTTTTTTTTTTTgfddtdysqyqqqqq8qw4444424*2TTTTTTTTxxxckkkjjjdjjddggfgsyysysyyyyyqtwtwTTTTTTTTTTTTTTTTTTTTTTTTTTTT",
"TTTTTTTTTTTTTTTTTTTTTTTTTTTTTTffdddtsyyqqyqq88444q442222TTTTTTTTxxkkkcjjjjjjjddjygfyygsysyyyyqyytwwTTTTTTTTTTTTTTTTTTTTTTTTTTTTT",
"TTTTTTTTTTTTTTTTTTTTTTTTTTTTTTTgppttsqqqqyq4877474442*22TTTTTTTTxkkxkjjjjjdddjddssgyfsysyyyqqyqqww7TTTTTTTTTTTTTTTTTTTTTTTTTTTTT",
"TTTTTTTTTTTTTTTTTTTTTTTTTTTTTTTytptpsqq744qw77744242222TTTTTTTTzxkkxjjjdjjjdddddsgysyysyyyyyqqyq7wTTTTTTTTTTTTTTTTTTTTTTTTTTTTTT",
"TTTTTTTTTTTTTTTTTTTTTTTTTTTTTTTTpttwtwwwyq777544222*422TTTTTTTTgkkkjjjjjdjddddddsysyyyyyqqyqqqqywwTTTTTTTTTTTTTTTTTTTTTTTTTTTTTT",
"TTTTTTTTTTTTTTTTTTTTTTTTTTTTTTTTttwwtw7tq4777242222*2%TTTTTTTTzzxkjjjjdjjdddddddysyssyyyyyqyqqq47TTTTTTTTTTTTTTTTTTTTTTTTTTTTTTT",
"TTTTTTTTTTTTTTTTTTTTTTTTTTTTTTTTtwww7t77444722422*22%2TTTTTTTTzzjjjjjdjpddddddtpsysyyyyqyqqyqqw77TTTTTTTTTTTTTTTTTTTTTTTTTTTTTTT",
"TTTTTTTTTTTTTTTTTTTTTTTTTTTTTTTTTwww77774q742422222%*TTTTTTTTgzgjjjjjddjddddppptysyyyqyqqqqqq87tTTTTTTTTTTTTTTTTTTTTTTTTTTTTTTTT",
"TTTTTTTTTTTTTTTTTTTTTTTTTTTTTTTTTww7w77444444**2222&&TTTTTTTTzfzjdjjjpjddddpptppyyyqyyqy44ywq8q4TTTTTTTTTTTTTTTTTTTTTTTTTTTTTTTT",
"TTTTTTTTTTTTTTTTTTTTTTTTTTTTTTTTTT77777444224222%%%%TTTTTTTTgfzfjjjdddpdddpptpptyyyyyqywyqww8q4TTTTTTTTTTTTTTTTTTTTTTTTTTTTTTTTT",
"TTTTTTTTTTTTTTTTTTTTTTTTTTTTTTTTTT77774424222*2%%22%TTTTTTTTzggzjddddddddpppptttyqyqqqqqwww887wTTTTTTTTTTTTTTTTTTTTTTTTTTTTTTTTT",
"TTTTTTTTTTTTTTTTTTTTTTTTTTTTTTTTTTT55542222*22%2%%&TTTTTTTTzzgggdjdddddppttptpttyyqyqq4y88w477TTTTTTTTTTTTTTTTTTTTTTTTTTTTTTTTTT",
"TTTTTTTTTTTTTTTTTTTTTTTTTTTTTTTTTTT7442424*2%*2&&%%TTTTTTTTgggzfdjddddppayaatyyyyqqw4qqq88q44qTTTTTTTTTTTTTTTTTTTTTTTTTTTTTTTTTT",
"TTTTTTTTTTTTTTTTTTTTTTTTTTTTTTTTTTTT4222*22*2&%%%%TTTTTTTTggggffddddtdtpyayyp4ywyyqqqq88w444qTTTTTTTTTTTTTTTTTTTTTTTTTTTTTTTTTTT",
"TTTTTTTTTTTTTTTTTTTTTTTTTTTTTTTTTTTT42*222**2%%&%&TTTTTTTTzkgfggdddtdptpayyytwwwy4qyq4w784qq4TTTTTTTTTTTTTTTTTTTTTTTTTTTTTTTTTTT",
"TTTTTTTTTTTTTTTTTTTTTTTTTTTTTTTTTTTTT222&*%2&%%O%TTTTTTTTjjjfffyddddtpptaywawtwwqy44qy774844TTTTTTTTTTTTTTTTTTTTTTTTTTTTTTTTTTTT",
"TTTTTTTTTTTTTTTTTTTTTTTTTTTTTTTTTTTTT22&%2%%%%%%OTTTTTTTTggfffgfsysyysyyywwtwtwwqq44q4775777TTTTTTTTTTTTTTTTTTTTTTTTTTTTTTTTTTTT",
"TTTTTTTTTTTTTTTTTTTTTTTTTTTTTTTTTTTTTT&22&%%%%%@TTTTTTTTgfffgyssssyssyyyywtwt7w7q8qqq477775TTTTTTTTTTTTTTTTTTTTTTTTTTTTTTTTTTTTT",
"TTTTTTTTTTTTTTTTTTTTTTTTTTTTTTTTTTTTTT&2&%%O%%++TTTTTTTTffgygssgyssyyyyqwtwt7ww7888744w7524TTTTTTTTTTTTTTTTTTTTTTTTTTTTTTTTTTTTT",
"TTTTTTTTTTTTTTTTTTTTTTTTTTTTTTTTTTTTTTT%%%%%OO+TTTTTTTTkffggyfyysyqsyyyytwwwwt8787774w4742TTTTTTTTTTTTTTTTTTTTTTTTTTTTTTTTTTTTTT",
"TTTTTTTTTTTTTTTTTTTTTTTTTTTTTTTTTTTTTTT&O&%%+++TTTTTTTTkfyggykuuyyyyqyyqy4qqw8t77777777442TTTTTTTTTTTTTTTTTTTTTTTTTTTTTTTTTTTTTT",
"TTTTTTTTTTTTTTTTTTTTTTTTTTTTTTTTTTTTTTTT%%OO++TTTTTTTTkygssyyuuusyyyyyqqqqqq78877775572424TTTTTTTTTTTTTTTTTTTTTTTTTTTTTTTTTTTTTT",
"TTTTTTTTTTTTTTTTTTTTTTTTTTTTTTTTTTTTTTTT++++++TTTTTTTTykyggysyuuyqqyyqyyq48q8777755724244TTTTTTTTTTTTTTTTTTTTTTTTTTTTTTTTTTTTTTT",
"TTTTTTTTTTTTTTTTTTTTTTTTTTTTTTTTTTTTTTTTT++++TTTTTTTTkaygyysysuyyyyqy4q4yqq87777775442422TTTTTTTTTTTTTTTTTTTTTTTTTTTTTTTTTTTTTTT",
"TTTTTTTTTTTTTTTTTTTTTTTTTTTTTTTTTTTTTTTTTOO OTTTTTTTTsgygsysuyyuyqqy44yq8887777575444242TTTTTTTTTTTTTTTTTTTTTTTTTTTTTTTTTTTTTTTT",
"TTTTTTTTTTTTTTTTTTTTTTTTTTTTTTTTTTTTTTTTTTO TTTTTTTTssysyysyyuywqqyqyqy48877777752422422TTTTTTTTTTTTTTTTTTTTTTTTTTTTTTTTTTTTTTTT",
"TTTTTTTTTTTTTTTTTTTTTTTTTTTTTTTTTTTTTTTTTTOOTTTTTTTTyfyyysyyuwwwyqqyw8ww777777542244222TTTTTTTTTTTTTTTTTTTTTTTTTTTTTTTTTTTTTTTTT",
"TTTTTTTTTTTTTTTTTTTTTTTTTTTTTTTTTTTTTTTTTTTTTTTTTTTsgyysqyyywuwwqqq48ww4777775242422222TTTTTTTTTTTTTTTTTTTTTTTTTTTTTTTTTTTTTTTTT",
"TTTTTTTTTTTTTTTTTTTTTTTTTTTTTTTTTTTTTTTTTTTTTTTTTTTyuuuuyyqyqqwwqyy4ww8477774444442222TTTTTTTTTTTTTTTTTTTTTTTTTTTTTTTTTTTTTTTTTT",
"TTTTTTTTTTTTTTTTTTTTTTTTTTTTTTTTTTTTTTTTTTTTTTTTTTysuuuyyyyyqyww44qq84487472442244*22*TTTTTTTTTTTTTTTTTTTTTTTTTTTTTTTTTTTTTTTTTT",
"TTTTTTTTTTTTTTTTTTTTTTTTTTTTTTTTTTTTTTTTTTTTTTTTTTuuuuwtyyqqqqqwqqq4q48444444242222*2TTTTTTTTTTTTTTTTTTTTTTTTTTTTTTTTTTTTTTTTTTT",
"TTTTTTTTTTTTTTTTTTTTTTTTTTTTTTTTTTTTTTTTTTTTTTTTTykuyytwqqyqqq4yy4q4484844442424*2222TTTTTTTTTTTTTTTTTTTTTTTTTTTTTTTTTTTTTTTTTTT",
"TTTTTTTTTTTTTTTTTTTTTTTTTTTTTTTTTTTTTTTTTTTTTTTTTuuyywwtqyqyqq87q4q4447744244224222*TTTTTTTTTTTTTTTTTTTTTTTTTTTTTTTTTTTTTTTTTTTT",
"TTTTTTTTTTTTTTTTTTTTTTTTTTTTTTTTTTTTTTTTTTTTTTTTuuyywutwyy448q8744y4444444424*2*2*2*TTTTTTTTTTTTTTTTTTTTTTTTTTTTTTTTTTTTTTTTTTTT",
"TTTTTTTTTTTTTTTTTTTTTTTTTTTTTTTTTTTTTTTTTTTTTTTTuytwuwtwq4qqq8774q444444422222*2*2*TTTTTTTTTTTTTTTTTTTTTTTTTTTTTTTTTTTTTTTTTTTTT",
"TTTTTTTTTTTTTTTTTTTTTTTTTTTTTTTTTTTTTTTTTTTTTTTyyuwtwtwwqy4qq477444q44222222*222222TTTTTTTTTTTTTTTTTTTTTTTTTTTTTTTTTTTTTTTTTTTTT",
"TTTTTTTTTTTTTTTTTTTTTTTTTTTTTTTTTTTTTTTTTTTTTTTytwtwyyy444yq7775w4724224222*422***TTTTTTTTTTTTTTTTTTTTTTTTTTTTTTTTTTTTTTTTTTTTTT",
"TTTTTTTTTTTTTTTTTTTTTTTTTTTTTTTTTTTTTTTTTTTTTTTTwwwtq4qqqq44775774442422*22*2*2*%2TTTTTTTTTTTTTTTTTTTTTTTTTTTTTTTTTTTTTTTTTTTTTT",
"TTTTTTTTTTTTTTTTTTTTTTTTTTTTTTTTTTTTTTTTTTTTTTTTwwww4y4qq44q57774442422244222*22*TTTTTTTTTTTTTTTTTTTTTTTTTTTTTTTTTTTTTTTTTTTTTTT",
"TTTTTTTTTTTTTTTTTTTTTTTTTTTTTTTTTTTTTTTTTTTTTTTTTwwwwwqy4y447754422422222**2****2TTTTTTTTTTTTTTTTTTTTTTTTTTTTTTTTTTTTTTTTTTTTTTT",
"TTTTTTTTTTTTTTTTTTTTTTTTTTTTTTTTTTTTTTTTTTTTTTTTTwww78q7w47755444244*2222222*%&&TTTTTTTTTTTTTTTTTTTTTTTTTTTTTTTTTTTTTTTTTTTTTTTT",
"TTTTTTTTTTTTTTTTTTTTTTTTTTTTTTTTTTTTTTTTTTTTTTTTTT7w77774w774224222442****%*22&2TTTTTTTTTTTTTTTTTTTTTTTTTTTTTTTTTTTTTTTTTTTTTTTT",
"TTTTTTTTTTTTTTTTTTTTTTTTTTTTTTTTTTTTTTTTTTTTTTTTTTw7777744444422222*2*22*22%%%&TTTTTTTTTTTTTTTTTTTTTTTTTTTTTTTTTTTTTTTTTTTTTTTTT",
"TTTTTTTTTTTTTTTTTTTTTTTTTTTTTTTTTTTTTTTTTTTTTTTTTTT77777444422424*4*222**%%%2&&TTTTTTTTTTTTTTTTTTTTTTTTTTTTTTTTTTTTTTTTTTTTTTTTT",
"TTTTTTTTTTTTTTTTTTTTTTTTTTTTTTTTTTTTTTTTTTTTTTTTTTT777554442442242*422*%22%%%%TTTTTTTTTTTTTTTTTTTTTTTTTTTTTTTTTTTTTTTTTTTTTTTTTT",
"TTTTTTTTTTTTTTTTTTTTTTTTTTTTTTTTTTTTTTTTTTTTTTTTTTTT7555442424*4*2*2*%*2%%2%%&TTTTTTTTTTTTTTTTTTTTTTTTTTTTTTTTTTTTTTTTTTTTTTTTTT",
"TTTTTTTTTTTTTTTTTTTTTTTTTTTTTTTTTTTTTTTTTTTTTTTTTTTT77554222222*2*2**2%2%%%%%TTTTTTTTTTTTTTTTTTTTTTTTTTTTTTTTTTTTTTTTTTTTTTTTTTT",
"TTTTTTTTTTTTTTTTTTTTTTTTTTTTTTTTTTTTTTTTTTTTTTTTTTTTT42224244*2*222*%2%&&%%%&TTTTTTTTTTTTTTTTTTTTTTTTTTTTTTTTTTTTTTTTTTTTTTTTTTT",
"TTTTTTTTTTTTTTTTTTTTTTTTTTTTTTTTTTTTTTTTTTTTTTTTTTTTT42242222*22**%%2&&*%%%&TTTTTTTTTTTTTTTTTTTTTTTTTTTTTTTTTTTTTTTTTTTTTTTTTTTT",
"TTTTTTTTTTTTTTTTTTTTTTTTTTTTTTTTTTTTTTTTTTTTTTTTTTTTTT4222*22*2*2*2%%%*%%%%OTTTTTTTTTTTTTTTTTTTTTTTTTTTTTTTTTTTTTTTTTTTTTTTTTTTT",
"TTTTTTTTTTTTTTTTTTTTTTTTTTTTTTTTTTTTTTTTTTTTTTTTTTTTTT224*22222**%%%&%%%%%&TTTTTTTTTTTTTTTTTTTTTTTTTTTTTTTTTTTTTTTTTTTTTTTTTTTTT",
"TTTTTTTTTTTTTTTTTTTTTTTTTTTTTTTTTTTTTTTTTTTTTTTTTTTTTT22222*2*%%*2&2%%%%%O%TTTTTTTTTTTTTTTTTTTTTTTTTTTTTTTTTTTTTTTTTTTTTTTTTTTTT",
"TTTTTTTTTTTTTTTTTTTTTTTTTTTTTTTTTTTTTTTTTTTTTTTTTTTTTTT2*22***&2&&%%%%%%%OTTTTTTTTTTTTTTTTTTTTTTTTTTTTTTTTTTTTTTTTTTTTTTTTTTTTTT",
"TTTTTTTTTTTTTTTTTTTTTTTTTTTTTTTTTTTTTTTTTTTTTTTTTTTTTTT2*22**2%%&%%%%%%%O%TTTTTTTTTTTTTTTTTTTTTTTTTTTTTTTTTTTTTTTTTTTTTTTTTTTTTT",
"TTTTTTTTTTTTTTTTTTTTTTTTTTTTTTTTTTTTTTTTTTTTTTTTTTTTTTTT22***%&2%%%%%%O%%TTTTTTTTTTTTTTTTTTTTTTTTTTTTTTTTTTTTTTTTTTTTTTTTTTTTTTT",
"TTTTTTTTTTTTTTTTTTTTTTTTTTTTTTTTTTTTTTTTTTTTTTTTTTTTTTTT***22%*%%%%O%O%O%TTTTTTTTTTTTTTTTTTTTTTTTTTTTTTTTTTTTTTTTTTTTTTTTTTTTTTT",
"TTTTTTTTTTTTTTTTTTTTTTTTTTTTTTTTTTTTTTTTTTTTTTTTTTTTTTTTT2%%&%%%%%%%@@++TTTTTTTTTTTTTTTTTTTTTTTTTTTTTTTTTTTTTTTTTTTTTTTTTTTTTTTT",
"TTTTTTTTTTTTTTTTTTTTTTTTTTTTTTTTTTTTTTTTTTTTTTTTTTTTTTTTT&&2%%%%%%%O@+++TTTTTTTTTTTTTTTTTTTTTTTTTTTTTTTTTTTTTTTTTTTTTTTTTTTTTTTT",
"TTTTTTTTTTTTTTTTTTTTTTTTTTTTTTTTTTTTTTTTTTTTTTTTTTTTTTTTTT%%%%%O%OO%++@TTTTTTTTTTTTTTTTTTTTTTTTTTTTTTTTTTTTTTTTTTTTTTTTTTTTTTTTT",
"TTTTTTTTTTTTTTTTTTTTTTTTTTTTTTTTTTTTTTTTTTTTTTTTTTTTTTTTTT%%%%%%%%OO+++TTTTTTTTTTTTTTTTTTTTTTTTTTTTTTTTTTTTTTTTTTTTTTTTTTTTTTTTT",
"TTTTTTTTTTTTTTTTTTTTTTTTTTTTTTTTTTTTTTTTTTTTTTTTTTTTTTTTTTT&%%O++++++ TTTTTTTTTTTTTTTTTTTTTTTTTTTTTTTTTTTTTTTTTTTTTTTTTTTTTTTTTT",
"TTTTTTTTTTTTTTTTTTTTTTTTTTTTTTTTTTTTTTTTTTTTTTTTTTTTTTTTTTT%%@%+++++ +TTTTTTTTTTTTTTTTTTTTTTTTTTTTTTTTTTTTTTTTTTTTTTTTTTTTTTTTTT",
"TTTTTTTTTTTTTTTTTTTTTTTTTTTTTTTTTTTTTTTTTTTTTTTTTTTTTTTTTTTT+++++++++TTTTTTTTTTTTTTTTTTTTTTTTTTTTTTTTTTTTTTTTTTTTTTTTTTTTTTTTTTT",
"TTTTTTTTTTTTTTTTTTTTTTTTTTTTTTTTTTTTTTTTTTTTTTTTTTTTTTTTTTTT+++++ +  TTTTTTTTTTTTTTTTTTTTTTTTTTTTTTTTTTTTTTTTTTTTTTTTTTTTTTTTTTT",
"TTTTTTTTTTTTTTTTTTTTTTTTTTTTTTTTTTTTTTTTTTTTTTTTTTTTTTTTTTTTT+++ ++ TTTTTTTTTTTTTTTTTTTTTTTTTTTTTTTTTTTTTTTTTTTTTTTTTTTTTTTTTTTT",
"TTTTTTTTTTTTTTTTTTTTTTTTTTTTTTTTTTTTTTTTTTTTTTTTTTTTTTTTTTTTT++ ++ +TTTTTTTTTTTTTTTTTTTTTTTTTTTTTTTTTTTTTTTTTTTTTTTTTTTTTTTTTTTT",
"TTTTTTTTTTTTTTTTTTTTTTTTTTTTTTTTTTTTTTTTTTTTTTTTTTTTTTTTTTTTTT++   TTTTTTTTTTTTTTTTTTTTTTTTTTTTTTTTTTTTTTTTTTTTTTTTTTTTTTTTTTTTT",
"TTTTTTTTTTTTTTTTTTTTTTTTTTTTTTTTTTTTTTTTTTTTTTTTTTTTTTTTTTTTTT++ ++TTTTTTTTTTTTTTTTTTTTTTTTTTTTTTTTTTTTTTTTTTTTTTTTTTTTTTTTTTTTT",
"TTTTTTTTTTTTTTTTTTTTTTTTTTTTTTTTTTTTTTTTTTTTTTTTTTTTTTTTTTTTTTT   TTTTTTTTTTTTTTTTTTTTTTTTTTTTTTTTTTTTTTTTTTTTTTTTTTTTTTTTTTTTTT",
"TTTTTTTTTTTTTTTTTTTTTTTTTTTTTTTTTTTTTTTTTTTTTTTTTTTTTTTTTTTTTTT+  TTTTTTTTTTTTTTTTTTTTTTTTTTTTTTTTTTTTTTTTTTTTTTTTTTTTTTTTTTTTTT",
"TTTTTTTTTTTTTTTTTTTTTTTTTTTTTTTTTTTTTTTTTTTTTTTTTTTTTTTTTTTTTTTT+TTTTTTTTTTTTTTTTTTTTTTTTTTTTTTTTTTTTTTTTTTTTTTTTTTTTTTTTTTTTTTT",
"TTTTTTTTTTTTTTTTTTTTTTTTTTTTTTTTTTTTTTTTTTTTTTTTTTTTTTTTTTTTTTTTTTTTTTTTTTTTTTTTTTTTTTTTTTTTTTTTTTTTTTTTTTTTTTTTTTTTTTTTTTTTTTTT"
};
