/* XPM */
static char *_3050_34a9e5ebf3faa699050d80f0b4172011f954e91789ed3ffba013c67abd56a3fc[] = {
/* columns rows colors chars-per-pixel */
"16 16 206 2 ",
"   c #000018",
".  c #000020",
"X  c #000826",
"o  c #000F25",
"O  c #00032C",
"+  c #000B2D",
"@  c #000D2E",
"#  c #000F2E",
"$  c #00102D",
"%  c #05162F",
"&  c #000B32",
"*  c #001130",
"=  c #041330",
"-  c #011530",
";  c #021431",
":  c #051431",
">  c #041630",
",  c #001536",
"<  c #091830",
"1  c #0C1C32",
"2  c #0C1D33",
"3  c #0B1D34",
"4  c #0E1F37",
"5  c #00123A",
"6  c #051938",
"7  c #041939",
"8  c #071C38",
"9  c #081C39",
"0  c #0A1C3A",
"q  c #101F32",
"w  c #171E35",
"e  c #182228",
"r  c #18232A",
"t  c #0C223E",
"y  c #0C233F",
"u  c #0F243C",
"i  c #152230",
"p  c #112136",
"a  c #142337",
"s  c #1C2832",
"d  c #1C2937",
"f  c #1F2C34",
"g  c #182839",
"h  c #1B2B3A",
"j  c #1E2B38",
"k  c #1D2E3C",
"l  c #1D2F3E",
"z  c #232B29",
"x  c #3E3F23",
"c  c #232F35",
"v  c #212F37",
"b  c #282832",
"n  c #202D38",
"m  c #202D39",
"M  c #24303B",
"N  c #24323A",
"B  c #27323A",
"V  c #29343B",
"C  c #29353B",
"Z  c #29353E",
"A  c #2C393B",
"S  c #2C3A3E",
"D  c #2E3A3E",
"F  c #323E3E",
"G  c #3D453E",
"H  c #41413C",
"J  c #635F3F",
"K  c #082143",
"L  c #0D2642",
"P  c #162E45",
"I  c #1F384F",
"U  c #1F3950",
"Y  c #263046",
"T  c #273846",
"R  c #253948",
"E  c #223A4E",
"W  c #303943",
"Q  c #323E41",
"!  c #223B50",
"~  c #213952",
"^  c #334048",
"/  c #34444D",
"(  c #3F4C4E",
")  c #3F4D4E",
"_  c #3F4D4F",
"`  c #2D4050",
"'  c #354751",
"]  c #384952",
"[  c #3E4E50",
"{  c #364F5E",
"}  c #3F5155",
"|  c #444C42",
" . c #424D4B",
".. c #464E4B",
"X. c #4C544A",
"o. c #48544D",
"O. c #555845",
"+. c #5A5B43",
"@. c #5C5B42",
"#. c #5B5F48",
"$. c #405156",
"%. c #615C40",
"&. c #5E6047",
"*. c #59655E",
"=. c #676540",
"-. c #666145",
";. c #676345",
":. c #646547",
">. c #6A6845",
",. c #646549",
"<. c #666648",
"1. c #68674B",
"2. c #68694B",
"3. c #6D6B48",
"4. c #68694C",
"5. c #766340",
"6. c #706D48",
"7. c #706E4A",
"8. c #746F49",
"9. c #787241",
"0. c #7D7746",
"q. c #77754F",
"w. c #78734A",
"e. c #626053",
"r. c #616855",
"t. c #717355",
"y. c #7E7E5C",
"u. c #545769",
"i. c #6D7663",
"p. c #926313",
"a. c #9D6E18",
"s. c #9E731C",
"d. c #A36C09",
"f. c #A17A39",
"g. c #807747",
"h. c #857C43",
"j. c #827B47",
"k. c #817C4B",
"l. c #847C4B",
"z. c #887E48",
"x. c #7F805D",
"c. c #B3883C",
"v. c #C18A1F",
"b. c #C69325",
"n. c #CF9420",
"m. c #DD9F21",
"M. c #C29838",
"N. c #D1A63D",
"B. c #DEAE3D",
"V. c #E0A122",
"C. c #E7AE37",
"Z. c #EBAE33",
"A. c #EDB235",
"S. c #898049",
"D. c #898149",
"F. c #8C844B",
"G. c #8A814D",
"H. c #8B824D",
"J. c #8B8350",
"K. c #8A8553",
"L. c #838159",
"P. c #928B56",
"I. c #958E55",
"U. c #98915B",
"Y. c #AD8B4A",
"T. c #A79951",
"R. c #AA9C5A",
"E. c #B1A35B",
"W. c #808160",
"Q. c #9A8A69",
"!. c #A7A06A",
"~. c #C29A47",
"^. c #CAA047",
"/. c #DEAE4F",
"(. c #D5B051",
"). c #DCB455",
"_. c #E7B84A",
"`. c #F3B943",
"'. c #EABA52",
"]. c #C3B36A",
"[. c #D3B261",
"{. c #DDBA6E",
"}. c #DBBC7E",
"|. c #EDBE60",
" X c #FFD550",
".X c #D2C070",
"XX c #D6C37E",
"oX c #F2D77B",
"OX c #DBBF83",
"+X c #E8C382",
"@X c #EED581",
"#X c #EFD284",
"$X c #EDD882",
"%X c #F7D381",
"&X c #F4DF89",
"*X c #E1D899",
"=X c #F1D699",
"-X c #F7DE9C",
";X c #F7DF9D",
":X c #FFE48C",
">X c #F1E8A6",
",X c #FFEEAD",
"<X c #FFFDA7",
"1X c #FFFFB9",
"2X c #FFFFF7",
"3X c None",
/* pixels */
"3X3X3X3X3X].P.y.x.L.K.3X3X3X3X3X",
"3X3X3X&X>XU.o.' ] $.*.W.J.3X3X3X",
"3X3XE.!.3.| ) ( _ [ / ` i.I.3X3X",
"3XH.r.A S E U I U ! ~ } R X.G.3X",
"3Xt.l P { ;.J 1.-.%.=.T t $ 2.3X",
"k. .K r M.m.b.C.V.B. Xa.= , F l.",
"q.9 ..'.|.OX~.c.;X}.=X+Xf.W : 8.",
"4.8 ^ ^.`.Q.XX-X2X,X#X1XY.w ; <.",
",.g y i s.N.{.%X:X)._.R.X 4 2 :.",
"7.p V L 0 (.Z./.[.v.p.O u m 1 6.",
"0.Z a B 7 H oX@Xn.d.Y 6 n 3 C g.",
"3X#.* M N . u.<XA.b 5 f d @ &.3X",
"3Xz.Q # j k   5.e.& c s o G S.3X",
"3X3XF.D + q h # - v z x w.T.3X3X",
"3X3X3XD.O.j < > % e 9.*X$X3X3X3X",
"3X3X3X3X3Xj.>.+.@.h..X3X3X3X3X3X"
};
